<mxfile host="app.diagrams.net" modified="2024-01-22T00:15:20.385Z" agent="Mozilla/5.0 (Windows NT 10.0; Win64; x64) AppleWebKit/537.36 (KHTML, like Gecko) Chrome/120.0.0.0 Safari/537.36 Edg/120.0.0.0" etag="m0tPemBOTSJ7c_ZNLcmh" version="22.1.21" type="github">
  <diagram id="R2lEEEUBdFMjLlhIrx00" name="Page-1">
    <mxGraphModel dx="664" dy="1923" grid="1" gridSize="10" guides="1" tooltips="1" connect="1" arrows="1" fold="1" page="1" pageScale="1" pageWidth="850" pageHeight="1100" math="0" shadow="0" extFonts="Permanent Marker^https://fonts.googleapis.com/css?family=Permanent+Marker">
      <root>
        <mxCell id="0" />
        <mxCell id="1" parent="0" />
        <mxCell id="YEW_lpGFMfUZtuyLqXXi-7" style="edgeStyle=none;rounded=0;orthogonalLoop=1;jettySize=auto;html=1;exitX=0.75;exitY=0;exitDx=0;exitDy=0;" parent="1" edge="1">
          <mxGeometry relative="1" as="geometry">
            <mxPoint x="290" y="-870" as="sourcePoint" />
            <mxPoint x="290" y="-870" as="targetPoint" />
          </mxGeometry>
        </mxCell>
        <mxCell id="YEW_lpGFMfUZtuyLqXXi-9" style="edgeStyle=none;rounded=0;orthogonalLoop=1;jettySize=auto;html=1;exitX=0.5;exitY=0;exitDx=0;exitDy=0;" parent="1" edge="1">
          <mxGeometry relative="1" as="geometry">
            <mxPoint x="260" y="-870" as="sourcePoint" />
            <mxPoint x="260" y="-870" as="targetPoint" />
          </mxGeometry>
        </mxCell>
        <mxCell id="YEW_lpGFMfUZtuyLqXXi-10" value="&lt;u&gt;ID&lt;/u&gt;" style="ellipse;whiteSpace=wrap;html=1;" parent="1" vertex="1">
          <mxGeometry x="75" y="-925" width="50" height="20" as="geometry" />
        </mxCell>
        <mxCell id="YEW_lpGFMfUZtuyLqXXi-15" style="edgeStyle=none;rounded=0;orthogonalLoop=1;jettySize=auto;html=1;entryX=1;entryY=0.5;entryDx=0;entryDy=0;" parent="1" source="YEW_lpGFMfUZtuyLqXXi-10" target="YEW_lpGFMfUZtuyLqXXi-10" edge="1">
          <mxGeometry relative="1" as="geometry" />
        </mxCell>
        <mxCell id="YEW_lpGFMfUZtuyLqXXi-19" value="city" style="ellipse;whiteSpace=wrap;html=1;" parent="1" vertex="1">
          <mxGeometry x="170" y="-930" width="60" height="30" as="geometry" />
        </mxCell>
        <mxCell id="YEW_lpGFMfUZtuyLqXXi-20" value="address" style="ellipse;whiteSpace=wrap;html=1;" parent="1" vertex="1">
          <mxGeometry x="120.63" y="-955" width="60" height="30" as="geometry" />
        </mxCell>
        <mxCell id="YEW_lpGFMfUZtuyLqXXi-30" style="edgeStyle=none;rounded=0;orthogonalLoop=1;jettySize=auto;html=1;exitX=0.5;exitY=0;exitDx=0;exitDy=0;" parent="1" source="YEW_lpGFMfUZtuyLqXXi-25" target="YEW_lpGFMfUZtuyLqXXi-25" edge="1">
          <mxGeometry relative="1" as="geometry" />
        </mxCell>
        <mxCell id="YEW_lpGFMfUZtuyLqXXi-31" value="Employee" style="whiteSpace=wrap;html=1;" parent="1" vertex="1">
          <mxGeometry x="112.5" y="-680" width="80" height="22.5" as="geometry" />
        </mxCell>
        <mxCell id="YEW_lpGFMfUZtuyLqXXi-45" style="edgeStyle=none;rounded=0;orthogonalLoop=1;jettySize=auto;html=1;exitX=0.5;exitY=0;exitDx=0;exitDy=0;entryX=0.5;entryY=1;entryDx=0;entryDy=0;" parent="1" source="YEW_lpGFMfUZtuyLqXXi-23" target="YEW_lpGFMfUZtuyLqXXi-46" edge="1">
          <mxGeometry relative="1" as="geometry">
            <mxPoint x="150" y="-830" as="targetPoint" />
          </mxGeometry>
        </mxCell>
        <mxCell id="YEW_lpGFMfUZtuyLqXXi-23" value="manages" style="rhombus;whiteSpace=wrap;html=1;" parent="1" vertex="1">
          <mxGeometry x="120" y="-780" width="60" height="40" as="geometry" />
        </mxCell>
        <mxCell id="YEW_lpGFMfUZtuyLqXXi-46" value="facility" style="whiteSpace=wrap;html=1;" parent="1" vertex="1">
          <mxGeometry x="112.5" y="-865" width="75" height="25" as="geometry" />
        </mxCell>
        <mxCell id="YEW_lpGFMfUZtuyLqXXi-47" value="parcel" style="whiteSpace=wrap;html=1;" parent="1" vertex="1">
          <mxGeometry x="420" y="-850" width="80" height="27.5" as="geometry" />
        </mxCell>
        <mxCell id="YEW_lpGFMfUZtuyLqXXi-52" value="" style="ellipse;whiteSpace=wrap;html=1;" parent="1" vertex="1">
          <mxGeometry x="505" y="-915" width="80" height="40" as="geometry" />
        </mxCell>
        <mxCell id="YEW_lpGFMfUZtuyLqXXi-53" value="mailing service" style="ellipse;whiteSpace=wrap;html=1;" parent="1" vertex="1">
          <mxGeometry x="510" y="-910" width="70" height="30" as="geometry" />
        </mxCell>
        <mxCell id="FE9auvhifzYaeZrekB-4-3" value="to" style="ellipse;whiteSpace=wrap;html=1;" vertex="1" parent="1">
          <mxGeometry x="460" y="-935" width="60" height="30" as="geometry" />
        </mxCell>
        <mxCell id="FE9auvhifzYaeZrekB-4-4" value="from" style="ellipse;whiteSpace=wrap;html=1;" vertex="1" parent="1">
          <mxGeometry x="395" y="-940" width="60" height="30" as="geometry" />
        </mxCell>
        <mxCell id="FE9auvhifzYaeZrekB-4-5" value="tracking number" style="ellipse;whiteSpace=wrap;html=1;" vertex="1" parent="1">
          <mxGeometry x="355" y="-895" width="60" height="30" as="geometry" />
        </mxCell>
        <mxCell id="YEW_lpGFMfUZtuyLqXXi-25" value="" style="whiteSpace=fill;html=1;fillColor=#000000;strokeColor=#000000;rotation=90;" parent="1" vertex="1">
          <mxGeometry x="119.38" y="-713.12" width="61.25" height="2.5" as="geometry" />
        </mxCell>
        <mxCell id="FE9auvhifzYaeZrekB-4-18" value="ISA" style="strokeWidth=2;html=1;shape=mxgraph.flowchart.extract_or_measurement;whiteSpace=wrap;" vertex="1" parent="1">
          <mxGeometry x="436.25" y="-752.5" width="47.5" height="32.5" as="geometry" />
        </mxCell>
        <mxCell id="FE9auvhifzYaeZrekB-4-21" value="Expedited" style="rounded=0;whiteSpace=wrap;html=1;" vertex="1" parent="1">
          <mxGeometry x="345" y="-650" width="70" height="30" as="geometry" />
        </mxCell>
        <mxCell id="FE9auvhifzYaeZrekB-4-22" value="Regular" style="rounded=0;whiteSpace=wrap;html=1;" vertex="1" parent="1">
          <mxGeometry x="505" y="-650" width="70" height="30" as="geometry" />
        </mxCell>
        <mxCell id="FE9auvhifzYaeZrekB-4-28" value="" style="endArrow=none;html=1;rounded=0;exitX=0.5;exitY=0;exitDx=0;exitDy=0;entryX=0.5;entryY=1;entryDx=0;entryDy=0;" edge="1" parent="1" source="YEW_lpGFMfUZtuyLqXXi-46" target="YEW_lpGFMfUZtuyLqXXi-20">
          <mxGeometry width="50" height="50" relative="1" as="geometry">
            <mxPoint x="290" y="-770" as="sourcePoint" />
            <mxPoint x="340" y="-820" as="targetPoint" />
          </mxGeometry>
        </mxCell>
        <mxCell id="FE9auvhifzYaeZrekB-4-29" value="" style="endArrow=none;html=1;rounded=0;exitX=0.5;exitY=1;exitDx=0;exitDy=0;entryX=0.5;entryY=0;entryDx=0;entryDy=0;entryPerimeter=0;" edge="1" parent="1" source="YEW_lpGFMfUZtuyLqXXi-47" target="FE9auvhifzYaeZrekB-4-18">
          <mxGeometry width="50" height="50" relative="1" as="geometry">
            <mxPoint x="154" y="-854" as="sourcePoint" />
            <mxPoint x="165" y="-915" as="targetPoint" />
            <Array as="points">
              <mxPoint x="460" y="-790" />
            </Array>
          </mxGeometry>
        </mxCell>
        <mxCell id="FE9auvhifzYaeZrekB-4-32" value="" style="endArrow=none;html=1;rounded=0;entryX=0.5;entryY=1;entryDx=0;entryDy=0;exitX=0.75;exitY=0;exitDx=0;exitDy=0;" edge="1" parent="1" source="YEW_lpGFMfUZtuyLqXXi-47" target="YEW_lpGFMfUZtuyLqXXi-53">
          <mxGeometry width="50" height="50" relative="1" as="geometry">
            <mxPoint x="485" y="-850" as="sourcePoint" />
            <mxPoint x="535" y="-900" as="targetPoint" />
          </mxGeometry>
        </mxCell>
        <mxCell id="FE9auvhifzYaeZrekB-4-33" value="" style="endArrow=none;html=1;rounded=0;entryX=0.247;entryY=0.969;entryDx=0;entryDy=0;entryPerimeter=0;exitX=0.5;exitY=0;exitDx=0;exitDy=0;" edge="1" parent="1" source="FE9auvhifzYaeZrekB-4-21" target="FE9auvhifzYaeZrekB-4-18">
          <mxGeometry width="50" height="50" relative="1" as="geometry">
            <mxPoint x="290" y="-770" as="sourcePoint" />
            <mxPoint x="340" y="-820" as="targetPoint" />
          </mxGeometry>
        </mxCell>
        <mxCell id="FE9auvhifzYaeZrekB-4-34" value="" style="endArrow=none;html=1;rounded=0;exitX=0.625;exitY=0;exitDx=0;exitDy=0;exitPerimeter=0;entryX=0.5;entryY=1;entryDx=0;entryDy=0;" edge="1" parent="1" source="YEW_lpGFMfUZtuyLqXXi-47" target="FE9auvhifzYaeZrekB-4-3">
          <mxGeometry width="50" height="50" relative="1" as="geometry">
            <mxPoint x="460" y="-842.0074999999999" as="sourcePoint" />
            <mxPoint x="478" y="-900" as="targetPoint" />
          </mxGeometry>
        </mxCell>
        <mxCell id="FE9auvhifzYaeZrekB-4-35" value="" style="endArrow=none;html=1;rounded=0;entryX=0.75;entryY=1.033;entryDx=0;entryDy=0;entryPerimeter=0;" edge="1" parent="1" target="FE9auvhifzYaeZrekB-4-4">
          <mxGeometry width="50" height="50" relative="1" as="geometry">
            <mxPoint x="450" y="-850" as="sourcePoint" />
            <mxPoint x="490" y="-900" as="targetPoint" />
          </mxGeometry>
        </mxCell>
        <mxCell id="FE9auvhifzYaeZrekB-4-36" value="" style="endArrow=none;html=1;rounded=0;exitX=0.25;exitY=0;exitDx=0;exitDy=0;entryX=0.617;entryY=0.933;entryDx=0;entryDy=0;entryPerimeter=0;" edge="1" parent="1" source="YEW_lpGFMfUZtuyLqXXi-47" target="FE9auvhifzYaeZrekB-4-5">
          <mxGeometry width="50" height="50" relative="1" as="geometry">
            <mxPoint x="355" y="-815" as="sourcePoint" />
            <mxPoint x="405" y="-865" as="targetPoint" />
          </mxGeometry>
        </mxCell>
        <mxCell id="FE9auvhifzYaeZrekB-4-37" value="" style="endArrow=none;html=1;rounded=0;entryX=0.5;entryY=0;entryDx=0;entryDy=0;exitX=0.689;exitY=0.938;exitDx=0;exitDy=0;exitPerimeter=0;" edge="1" parent="1" source="FE9auvhifzYaeZrekB-4-18" target="FE9auvhifzYaeZrekB-4-22">
          <mxGeometry width="50" height="50" relative="1" as="geometry">
            <mxPoint x="480" y="-660" as="sourcePoint" />
            <mxPoint x="530" y="-710" as="targetPoint" />
          </mxGeometry>
        </mxCell>
        <mxCell id="FE9auvhifzYaeZrekB-4-46" value="" style="endArrow=none;html=1;rounded=0;exitX=0.75;exitY=0;exitDx=0;exitDy=0;entryX=0.5;entryY=1;entryDx=0;entryDy=0;" edge="1" parent="1" source="YEW_lpGFMfUZtuyLqXXi-46" target="YEW_lpGFMfUZtuyLqXXi-19">
          <mxGeometry width="50" height="50" relative="1" as="geometry">
            <mxPoint x="290" y="-770" as="sourcePoint" />
            <mxPoint x="340" y="-820" as="targetPoint" />
          </mxGeometry>
        </mxCell>
        <mxCell id="FE9auvhifzYaeZrekB-4-47" value="" style="endArrow=none;html=1;rounded=0;exitX=0.25;exitY=0;exitDx=0;exitDy=0;entryX=0.5;entryY=1;entryDx=0;entryDy=0;" edge="1" parent="1" source="YEW_lpGFMfUZtuyLqXXi-46" target="YEW_lpGFMfUZtuyLqXXi-10">
          <mxGeometry width="50" height="50" relative="1" as="geometry">
            <mxPoint x="290" y="-770" as="sourcePoint" />
            <mxPoint x="340" y="-820" as="targetPoint" />
          </mxGeometry>
        </mxCell>
      </root>
    </mxGraphModel>
  </diagram>
</mxfile>
